<svg id="Layer_1" data-name="Layer 1" xmlns="http://www.w3.org/2000/svg" viewBox="0 0 512 512"><title>tiles-1-view-glyph</title><path d="M234.67,21.33v192a21.33,21.33,0,0,1-21.33,21.33h-192A21.33,21.33,0,0,1,0,213.33v-192A21.33,21.33,0,0,1,21.33,0h192A21.33,21.33,0,0,1,234.67,21.33ZM490.67,0h-192a21.33,21.33,0,0,0-21.33,21.33V490.67A21.33,21.33,0,0,0,298.67,512h192A21.33,21.33,0,0,0,512,490.67V21.33A21.33,21.33,0,0,0,490.67,0ZM213.33,277.33h-192A21.33,21.33,0,0,0,0,298.67v192A21.33,21.33,0,0,0,21.33,512h192a21.33,21.33,0,0,0,21.33-21.33v-192A21.33,21.33,0,0,0,213.33,277.33Z"/></svg>